<?xml version="1.0" encoding="UTF-8"?>
<!DOCTYPE svg PUBLIC "-//W3C//DTD SVG 1.1//EN" "http://www.w3.org/Graphics/SVG/1.1/DTD/svg11.dtd">
<svg xmlns="http://www.w3.org/2000/svg" version="1.1" width="500px" height="500px" style="shape-rendering:geometricPrecision; text-rendering:geometricPrecision; image-rendering:optimizeQuality; fill-rule:evenodd; clip-rule:evenodd" xmlns:xlink="http://www.w3.org/1999/xlink">
<g><path style="opacity:0.308" fill="#437cab" d="M 229.5,2.5 C 242.327,1.33979 255.327,1.17312 268.5,2C 276.752,2.39272 284.752,3.55939 292.5,5.5C 274.853,4.44174 257.186,3.44174 239.5,2.5C 236.167,2.5 232.833,2.5 229.5,2.5 Z"/></g>
<g><path style="opacity:0.878" fill="#487da9" d="M 227.5,2.5 C 223.056,3.81268 218.389,4.64601 213.5,5C 214.167,5.33333 214.833,5.66667 215.5,6C 206.484,7.16984 197.484,8.33651 188.5,9.5C 201.094,5.56624 214.094,3.23291 227.5,2.5 Z"/></g>
<g><path style="opacity:1" fill="#1974ba" d="M 239.5,2.5 C 257.186,3.44174 274.853,4.44174 292.5,5.5C 296.924,5.65199 301.257,6.31866 305.5,7.5C 306.642,9.43309 308.308,10.9331 310.5,12C 315.114,13.2137 319.78,14.2137 324.5,15C 328.518,18.3443 333.185,20.1777 338.5,20.5C 339.829,22.8023 341.162,25.1356 342.5,27.5C 344.937,25.4244 347.603,25.0911 350.5,26.5C 348.947,27.439 347.613,28.6057 346.5,30C 348.304,32.2983 350.637,32.965 353.5,32C 357.722,28.7791 361.888,28.9458 366,32.5C 366.383,31.944 366.883,31.6107 367.5,31.5C 369.819,31.9925 371.819,32.9925 373.5,34.5C 373.281,35.675 373.614,36.675 374.5,37.5C 379.713,39.7758 384.38,42.7758 388.5,46.5C 391.343,53.0017 396.343,56.335 403.5,56.5C 403.833,59.5 402.5,60.8333 399.5,60.5C 399.628,67.6732 401.294,68.1732 404.5,62C 408.738,62.8993 410.738,65.7326 410.5,70.5C 412.467,70.7394 414.301,70.4061 416,69.5C 417.817,72.1438 420.317,73.8105 423.5,74.5C 424.74,78.4068 427.406,80.4068 431.5,80.5C 431.343,81.8734 431.51,83.2068 432,84.5C 434.358,86.0243 436.191,88.0243 437.5,90.5C 438.417,91.1272 439.417,91.4606 440.5,91.5C 442.89,92.8908 444.557,94.8908 445.5,97.5C 446.32,99.8123 447.153,102.146 448,104.5C 450.985,108.452 453.985,112.452 457,116.5C 458.202,118.677 458.702,121.011 458.5,123.5C 459.822,123.33 460.989,123.663 462,124.5C 464.375,129.348 467.042,134.014 470,138.5C 470.333,141.5 470.667,144.5 471,147.5C 475.054,150.418 476.554,154.418 475.5,159.5C 477.167,159.5 478.833,159.5 480.5,159.5C 479.592,166.147 481.092,172.147 485,177.5C 485.539,182.443 486.872,187.11 489,191.5C 489.799,197.485 490.465,203.485 491,209.5C 493.69,216.336 495.523,223.336 496.5,230.5C 497.817,244.137 497.817,257.803 496.5,271.5C 494.882,275.084 493.882,279.084 493.5,283.5C 492.572,281.665 491.406,281.332 490,282.5C 489.743,288.196 489.243,293.863 488.5,299.5C 490.078,302.854 489.578,305.854 487,308.5C 486.497,313.19 485.83,317.857 485,322.5C 482.793,326.624 481.293,330.957 480.5,335.5C 479.325,335.281 478.325,335.614 477.5,336.5C 478.309,338.071 478.643,339.738 478.5,341.5C 476.087,345.88 473.753,350.88 471.5,356.5C 471.043,357.298 470.376,357.631 469.5,357.5C 468.685,358.429 467.852,359.429 467,360.5C 462.96,373.078 456.46,384.245 447.5,394C 446.485,395.373 446.485,396.54 447.5,397.5C 447.672,398.492 447.338,399.158 446.5,399.5C 444.965,398.212 443.299,398.212 441.5,399.5C 440.499,402.172 439.499,404.839 438.5,407.5C 434.5,412.167 430.167,416.5 425.5,420.5C 424.754,421.736 424.421,423.07 424.5,424.5C 423.577,423.697 422.577,423.53 421.5,424C 414.336,431.401 407.003,438.567 399.5,445.5C 395.698,449.237 391.365,452.237 386.5,454.5C 384.801,454.34 383.134,454.506 381.5,455C 382.833,455.667 382.833,456.333 381.5,457C 376.508,459.161 371.841,461.828 367.5,465C 366.262,465.69 366.262,466.19 367.5,466.5C 367.158,467.338 366.492,467.672 365.5,467.5C 365.44,466.957 365.107,466.624 364.5,466.5C 358.426,469.62 352.259,472.62 346,475.5C 344.97,475.836 344.47,476.503 344.5,477.5C 344.158,478.338 343.492,478.672 342.5,478.5C 340.143,478.337 337.81,478.503 335.5,479C 331.184,481.535 326.518,483.202 321.5,484C 319.973,485.032 318.64,486.199 317.5,487.5C 317.167,487.5 316.833,487.5 316.5,487.5C 314.167,487.5 311.833,487.5 309.5,487.5C 291.752,491.702 273.752,494.035 255.5,494.5C 255.5,492.5 255.5,490.5 255.5,488.5C 252.786,488.25 250.119,488.083 247.5,488C 247.833,488.333 248.167,488.667 248.5,489C 245.813,490.195 243.146,490.362 240.5,489.5C 239.289,490.274 239.289,491.107 240.5,492C 240,492.167 239.5,492.333 239,492.5C 237.85,491.576 236.85,491.576 236,492.5C 235.333,489.833 234.667,489.833 234,492.5C 233.683,490.699 233.016,490.366 232,491.5C 230.115,489.98 227.949,488.98 225.5,488.5C 221.093,490.536 216.426,491.036 211.5,490C 202.908,489.513 194.575,487.847 186.5,485C 185.167,484.333 185.167,483.667 186.5,483C 179.165,482.452 171.831,481.952 164.5,481.5C 164.918,480.778 165.584,480.278 166.5,480C 163.768,479.587 161.101,478.92 158.5,478C 159.833,477 159.833,476 158.5,475C 154.004,473.255 149.338,472.421 144.5,472.5C 143.508,472.672 142.842,472.338 142.5,471.5C 140.228,468.777 137.228,466.943 133.5,466C 133.167,465 132.833,464 132.5,463C 129.007,461.251 125.34,460.085 121.5,459.5C 118.794,456.479 115.461,454.479 111.5,453.5C 111.586,452.504 111.252,451.671 110.5,451C 101.524,444.946 92.8572,438.446 84.5,431.5C 83.5081,426.502 80.5081,424.168 75.5,424.5C 76.2901,421.462 74.9567,419.462 71.5,418.5C 70.0719,412.618 66.5719,408.618 61,406.5C 60.0266,404.608 59.3599,402.608 59,400.5C 55.2295,399.776 53.5628,397.443 54,393.5C 45.6178,386.394 39.7844,378.061 36.5,368.5C 35.5,368.5 34.5,368.5 33.5,368.5C 32.3263,367.486 31.6596,366.153 31.5,364.5C 31.5023,362.169 30.669,360.169 29,358.5C 28.5034,356.19 28.3367,353.857 28.5,351.5C 27.1667,351.5 25.8333,351.5 24.5,351.5C 24.5,351.167 24.5,350.833 24.5,350.5C 24.6641,347.813 24.4974,345.146 24,342.5C 22.1207,340.473 20.954,338.14 20.5,335.5C 21.1386,334.903 21.472,334.07 21.5,333C 18.5009,328.535 18.8342,324.368 22.5,320.5C 19.6791,319.029 17.1791,319.363 15,321.5C 12.3662,311.783 9.86624,302.117 7.5,292.5C 7.5,292.167 7.5,291.833 7.5,291.5C 6.31371,276.687 5.31371,261.853 4.5,247C 5.12158,239.177 5.45492,231.344 5.5,223.5C 8.47879,196.575 15.6455,170.909 27,146.5C 28.0793,143.937 28.5793,141.271 28.5,138.5C 31.1482,136.524 33.8149,134.524 36.5,132.5C 40.897,124.749 44.897,116.749 48.5,108.5C 49.6283,107.738 50.7949,107.071 52,106.5C 53.0389,103.079 55.0389,100.412 58,98.5C 59.2571,91.4089 63.4237,87.0756 70.5,85.5C 71.2715,83.1378 72.1048,80.8045 73,78.5C 76.8244,74.3183 81.3244,71.1517 86.5,69C 86.8095,65.6071 88.4762,63.1071 91.5,61.5C 96.3664,58.1358 101.366,54.9691 106.5,52C 107.167,50.6667 107.833,49.3333 108.5,48C 111.732,45.5923 115.399,43.9257 119.5,43C 124.6,37.6102 130.6,33.4435 137.5,30.5C 138.425,29.6431 139.092,28.6431 139.5,27.5C 141.593,28.9726 143.26,28.4726 144.5,26C 148.353,25.8298 151.686,24.4964 154.5,22C 157.5,21.6667 160.5,21.3333 163.5,21C 168.065,17.4808 173.065,14.9808 178.5,13.5C 188.122,11.5541 197.789,9.88742 207.5,8.5C 207.5,9.83333 207.5,11.1667 207.5,12.5C 212.199,13.4837 215.533,11.817 217.5,7.5C 219.5,6.83333 221.5,6.16667 223.5,5.5C 229.019,4.75971 234.352,3.75971 239.5,2.5 Z M 242.5,201.5 C 242.427,203.027 243.094,204.027 244.5,204.5C 244.427,206.027 245.094,207.027 246.5,207.5C 246.833,208.5 247.5,209.167 248.5,209.5C 248.427,211.027 249.094,212.027 250.5,212.5C 251.124,214.754 252.457,216.421 254.5,217.5C 255.5,219.5 256.5,221.5 257.5,223.5C 256.399,224.598 255.066,224.765 253.5,224C 250.964,221.295 248.297,218.795 245.5,216.5C 245.262,214.596 244.262,213.262 242.5,212.5C 239.976,207.957 237.309,203.457 234.5,199C 234.613,197.72 235.28,196.887 236.5,196.5C 238.519,198.19 240.519,199.856 242.5,201.5 Z"/></g>
<g><path style="opacity:0.872" fill="#276faa" d="M 227.5,2.5 C 228.167,2.5 228.833,2.5 229.5,2.5C 232.833,2.5 236.167,2.5 239.5,2.5C 234.352,3.75971 229.019,4.75971 223.5,5.5C 221.5,6.16667 219.5,6.83333 217.5,7.5C 215.533,11.817 212.199,13.4837 207.5,12.5C 207.5,11.1667 207.5,9.83333 207.5,8.5C 197.789,9.88742 188.122,11.5541 178.5,13.5C 180.5,12.5 182.5,11.5 184.5,10.5C 185.568,9.56552 186.901,9.23219 188.5,9.5C 197.484,8.33651 206.484,7.16984 215.5,6C 214.833,5.66667 214.167,5.33333 213.5,5C 218.389,4.64601 223.056,3.81268 227.5,2.5 Z"/></g>
<g><path style="opacity:0.89" fill="#3575ab" d="M 305.5,7.5 C 315.7,9.88262 325.7,12.8826 335.5,16.5C 338.165,18.5908 341.165,20.4242 344.5,22C 346.134,22.4935 347.801,22.6602 349.5,22.5C 350.492,22.3284 351.158,22.6618 351.5,23.5C 346.734,24.0367 342.4,23.0367 338.5,20.5C 333.185,20.1777 328.518,18.3443 324.5,15C 319.78,14.2137 315.114,13.2137 310.5,12C 308.308,10.9331 306.642,9.43309 305.5,7.5 Z"/></g>
<g><path style="opacity:0.886" fill="#3c76a7" d="M 184.5,10.5 C 182.5,11.5 180.5,12.5 178.5,13.5C 173.065,14.9808 168.065,17.4808 163.5,21C 160.5,21.3333 157.5,21.6667 154.5,22C 151.686,24.4964 148.353,25.8298 144.5,26C 143.26,28.4726 141.593,28.9726 139.5,27.5C 153.659,19.9337 168.659,14.267 184.5,10.5 Z"/></g>
<g><path style="opacity:0.42" fill="#4b7c9f" d="M 335.5,16.5 C 340.463,17.9858 345.129,19.9858 349.5,22.5C 347.801,22.6602 346.134,22.4935 344.5,22C 341.165,20.4242 338.165,18.5908 335.5,16.5 Z"/></g>
<g><path style="opacity:1" fill="#2475b2" d="M 338.5,20.5 C 342.4,23.0367 346.734,24.0367 351.5,23.5C 357.386,25.2288 362.719,27.8954 367.5,31.5C 366.883,31.6107 366.383,31.944 366,32.5C 361.888,28.9458 357.722,28.7791 353.5,32C 350.637,32.965 348.304,32.2983 346.5,30C 347.613,28.6057 348.947,27.439 350.5,26.5C 347.603,25.0911 344.937,25.4244 342.5,27.5C 341.162,25.1356 339.829,22.8023 338.5,20.5 Z"/></g>
<g><path style="opacity:0.584" fill="#437aa4" d="M 373.5,34.5 C 382.66,39.0008 390.993,44.6675 398.5,51.5C 394.366,51.3494 391.033,49.6827 388.5,46.5C 384.38,42.7758 379.713,39.7758 374.5,37.5C 373.614,36.675 373.281,35.675 373.5,34.5 Z"/></g>
<g><path style="opacity:0.169" fill="#77a2c3" d="M 86.5,63.5 C 85.4154,65.5869 83.7488,66.9202 81.5,67.5C 82.5846,65.4131 84.2512,64.0798 86.5,63.5 Z"/></g>
<g><path style="opacity:1" fill="#2e75ac" d="M 388.5,46.5 C 391.033,49.6827 394.366,51.3494 398.5,51.5C 402.456,53.4854 406.122,55.9854 409.5,59C 417.365,65.6988 424.698,72.8655 431.5,80.5C 427.406,80.4068 424.74,78.4068 423.5,74.5C 420.317,73.8105 417.817,72.1438 416,69.5C 414.301,70.4061 412.467,70.7394 410.5,70.5C 410.738,65.7326 408.738,62.8993 404.5,62C 401.294,68.1732 399.628,67.6732 399.5,60.5C 402.5,60.8333 403.833,59.5 403.5,56.5C 396.343,56.335 391.343,53.0017 388.5,46.5 Z"/></g>
<g><path style="opacity:0.878" fill="#3875a6" d="M 139.5,27.5 C 139.092,28.6431 138.425,29.6431 137.5,30.5C 130.6,33.4435 124.6,37.6102 119.5,43C 115.399,43.9257 111.732,45.5923 108.5,48C 107.833,49.3333 107.167,50.6667 106.5,52C 101.366,54.9691 96.3664,58.1358 91.5,61.5C 88.4762,63.1071 86.8095,65.6071 86.5,69C 81.3244,71.1517 76.8244,74.3183 73,78.5C 72.1048,80.8045 71.2715,83.1378 70.5,85.5C 63.4237,87.0756 59.2571,91.4089 58,98.5C 55.0389,100.412 53.0389,103.079 52,106.5C 50.7949,107.071 49.6283,107.738 48.5,108.5C 44.897,116.749 40.897,124.749 36.5,132.5C 33.8149,134.524 31.1482,136.524 28.5,138.5C 41.5422,111.431 59.2089,87.7644 81.5,67.5C 83.7488,66.9202 85.4154,65.5869 86.5,63.5C 102.254,48.7817 119.92,36.7817 139.5,27.5 Z"/></g>
<g><path style="opacity:0.776" fill="#41769f" d="M 431.5,80.5 C 434.871,83.8706 437.871,87.5373 440.5,91.5C 439.417,91.4606 438.417,91.1272 437.5,90.5C 436.191,88.0243 434.358,86.0243 432,84.5C 431.51,83.2068 431.343,81.8734 431.5,80.5 Z"/></g>
<g><path style="opacity:0.651" fill="#3673a3" d="M 445.5,97.5 C 460.471,116.178 472.138,136.845 480.5,159.5C 478.833,159.5 477.167,159.5 475.5,159.5C 476.554,154.418 475.054,150.418 471,147.5C 470.667,144.5 470.333,141.5 470,138.5C 467.042,134.014 464.375,129.348 462,124.5C 460.989,123.663 459.822,123.33 458.5,123.5C 458.702,121.011 458.202,118.677 457,116.5C 453.985,112.452 450.985,108.452 448,104.5C 447.153,102.146 446.32,99.8123 445.5,97.5 Z"/></g>
<g><path style="opacity:1" fill="#1673bc" d="M 159.5,143.5 C 158.833,143.5 158.167,143.5 157.5,143.5C 156.791,142.596 155.791,142.263 154.5,142.5C 154.67,141.178 154.337,140.011 153.5,139C 149.137,135.648 144.47,134.982 139.5,137C 137.543,138.746 136.543,140.912 136.5,143.5C 137.5,143.5 138.5,143.5 139.5,143.5C 140.833,207.5 140.833,271.5 139.5,335.5C 139.167,335.5 138.833,335.5 138.5,335.5C 137.984,337.718 136.984,339.718 135.5,341.5C 133.261,339.867 132.928,337.867 134.5,335.5C 135.117,335.389 135.617,335.056 136,334.5C 136.667,271.167 136.667,207.833 136,144.5C 135.329,143.748 134.496,143.414 133.5,143.5C 132.501,207.331 132.168,271.331 132.5,335.5C 131.5,335.5 130.5,335.5 129.5,335.5C 129.333,270.499 129.5,205.499 130,140.5C 131.639,134.569 135.472,130.902 141.5,129.5C 145.767,130.915 150.101,132.249 154.5,133.5C 154.88,135.021 155.046,136.687 155,138.5C 157.049,139.714 158.549,141.38 159.5,143.5 Z"/></g>
<g><path style="opacity:1" fill="#1c73b1" d="M 133.5,143.5 C 134.496,143.414 135.329,143.748 136,144.5C 136.667,207.833 136.667,271.167 136,334.5C 135.617,335.056 135.117,335.389 134.5,335.5C 133.501,271.669 133.168,207.669 133.5,143.5 Z"/></g>
<g><path style="opacity:1" fill="#2e6ba6" d="M 147.5,138.5 C 150.91,138.384 152.244,140.05 151.5,143.5C 150.501,207.331 150.168,271.331 150.5,335.5C 150.167,335.5 149.833,335.5 149.5,335.5C 149.832,270.331 149.499,205.331 148.5,140.5C 148.167,139.833 147.833,139.167 147.5,138.5 Z"/></g>
<g><path style="opacity:1" fill="#1777b1" d="M 157.5,144.5 C 157.168,208.336 157.501,272.002 158.5,335.5C 157.458,336.791 156.292,336.791 155,335.5C 154.167,271.497 154.333,207.497 155.5,143.5C 156.183,143.863 156.85,144.196 157.5,144.5 Z"/></g>
<g><path style="opacity:1" fill="#b4dced" d="M 148.5,140.5 C 148.5,140.833 148.5,141.167 148.5,141.5C 146.5,141.5 144.5,141.5 142.5,141.5C 142.5,206.167 142.5,270.833 142.5,335.5C 142.5,340.167 142.5,344.833 142.5,349.5C 142.167,349.5 141.833,349.5 141.5,349.5C 141.5,348.833 141.5,348.167 141.5,347.5C 141.5,278.5 141.5,209.5 141.5,140.5C 143.833,140.5 146.167,140.5 148.5,140.5 Z"/></g>
<g><path style="opacity:1" fill="#f7edf4" d="M 145.5,143.5 C 146.163,208.509 145.496,273.175 143.5,337.5C 143.5,336.833 143.5,336.167 143.5,335.5C 142.837,271.158 143.504,207.158 145.5,143.5 Z"/></g>
<g><path style="opacity:1" fill="#236db8" d="M 151.5,143.5 C 151.976,207.511 151.976,271.511 151.5,335.5C 151.167,335.5 150.833,335.5 150.5,335.5C 150.168,271.331 150.501,207.331 151.5,143.5 Z"/></g>
<g><path style="opacity:1" fill="#f2f0eb" d="M 321.5,162.5 C 320.833,163.5 320.167,164.5 319.5,165.5C 318.504,165.586 317.671,165.252 317,164.5C 316.333,162.5 316.333,160.5 317,158.5C 319.152,155.049 321.819,152.049 325,149.5C 325.437,146.228 327.27,144.561 330.5,144.5C 330.5,147.833 330.5,151.167 330.5,154.5C 327.873,155.092 325.206,155.425 322.5,155.5C 322.326,157.861 321.993,160.194 321.5,162.5 Z"/></g>
<g><path style="opacity:1" fill="#2f6d9f" d="M 303.5,187.5 C 303.5,187.167 303.5,186.833 303.5,186.5C 307.553,181.781 311.22,176.781 314.5,171.5C 316.137,169.525 317.804,167.525 319.5,165.5C 320.167,164.5 320.833,163.5 321.5,162.5C 322.785,160.548 324.451,158.882 326.5,157.5C 327.855,158.188 328.855,159.188 329.5,160.5C 332.029,161.905 333.696,161.072 334.5,158C 333.861,152.209 333.861,146.376 334.5,140.5C 333.209,140.263 332.209,140.596 331.5,141.5C 326.41,143.09 321.41,145.09 316.5,147.5C 315.417,148.365 315.251,149.365 316,150.5C 317.487,151.155 318.653,152.155 319.5,153.5C 317.051,156.761 314.384,159.761 311.5,162.5C 312.427,159.478 313.761,156.645 315.5,154C 315.294,152.135 314.628,150.468 313.5,149C 313.78,147.605 314.447,146.438 315.5,145.5C 319.86,144.616 323.527,142.616 326.5,139.5C 329.524,138.27 332.524,138.27 335.5,139.5C 335.833,141 336.167,142.5 336.5,144C 334.739,150.158 333.906,156.324 334,162.5C 332.612,163.554 331.112,163.72 329.5,163C 328.667,161.5 327.5,160.333 326,159.5C 322.305,164.207 318.971,169.207 316,174.5C 313.09,175.45 311.923,177.45 312.5,180.5C 309.103,181.568 307.103,183.901 306.5,187.5C 305.5,187.5 304.5,187.5 303.5,187.5 Z"/></g>
<g><path style="opacity:1" fill="#4680a9" d="M 331.5,141.5 C 332.209,140.596 333.209,140.263 334.5,140.5C 333.861,146.376 333.861,152.209 334.5,158C 333.696,161.072 332.029,161.905 329.5,160.5C 330.649,160.209 331.316,159.376 331.5,158C 332.207,153.507 332.874,149.007 333.5,144.5C 333.36,142.97 332.693,141.97 331.5,141.5 Z"/></g>
<g><path style="opacity:1" fill="#d8eef8" d="M 331.5,141.5 C 332.693,141.97 333.36,142.97 333.5,144.5C 332.874,149.007 332.207,153.507 331.5,158C 331.316,159.376 330.649,160.209 329.5,160.5C 328.855,159.188 327.855,158.188 326.5,157.5C 324.451,158.882 322.785,160.548 321.5,162.5C 321.993,160.194 322.326,157.861 322.5,155.5C 325.206,155.425 327.873,155.092 330.5,154.5C 330.5,151.167 330.5,147.833 330.5,144.5C 327.27,144.561 325.437,146.228 325,149.5C 321.819,152.049 319.152,155.049 317,158.5C 316.333,160.5 316.333,162.5 317,164.5C 317.671,165.252 318.504,165.586 319.5,165.5C 317.804,167.525 316.137,169.525 314.5,171.5C 314.785,169.712 314.452,168.045 313.5,166.5C 311.929,168.415 309.929,169.415 307.5,169.5C 308.861,167.15 310.194,164.816 311.5,162.5C 314.384,159.761 317.051,156.761 319.5,153.5C 318.653,152.155 317.487,151.155 316,150.5C 315.251,149.365 315.417,148.365 316.5,147.5C 321.41,145.09 326.41,143.09 331.5,141.5 Z"/></g>
<g><path style="opacity:1" fill="#33719c" d="M 147.5,138.5 C 147.833,139.167 148.167,139.833 148.5,140.5C 146.167,140.5 143.833,140.5 141.5,140.5C 141.5,209.5 141.5,278.5 141.5,347.5C 140.883,347.611 140.383,347.944 140,348.5C 139.501,344.179 139.334,339.846 139.5,335.5C 140.833,271.5 140.833,207.5 139.5,143.5C 139.598,137.806 142.265,136.14 147.5,138.5 Z"/></g>
<g><path style="opacity:1" fill="#1b71c3" d="M 151.5,143.5 C 152.833,175.16 153.5,207.16 153.5,239.5C 153.5,271.84 152.833,303.84 151.5,335.5C 151.976,271.511 151.976,207.511 151.5,143.5 Z"/></g>
<g><path style="opacity:1" fill="#2b6796" d="M 311.5,162.5 C 310.194,164.816 308.861,167.15 307.5,169.5C 306.527,171.139 305.194,172.473 303.5,173.5C 304.352,170.777 305.519,168.11 307,165.5C 308.129,163.859 309.629,162.859 311.5,162.5 Z"/></g>
<g><path style="opacity:1" fill="#edf2f2" d="M 314.5,171.5 C 311.22,176.781 307.553,181.781 303.5,186.5C 302.5,186.5 301.5,186.5 300.5,186.5C 299.889,183.039 301.056,180.372 304,178.5C 304.483,177.552 304.649,176.552 304.5,175.5C 305.822,175.67 306.989,175.337 308,174.5C 307.981,172.893 307.815,171.226 307.5,169.5C 309.929,169.415 311.929,168.415 313.5,166.5C 314.452,168.045 314.785,169.712 314.5,171.5 Z"/></g>
<g><path style="opacity:1" fill="#2b6d9a" d="M 296.5,183.5 C 293.848,187.482 290.848,191.149 287.5,194.5C 288.797,192.007 289.797,189.34 290.5,186.5C 292.243,184.962 294.243,183.962 296.5,183.5 Z"/></g>
<g><path style="opacity:1" fill="#3478a7" d="M 302.5,188.5 C 301.895,191.127 301.395,193.793 301,196.5C 299.736,198.607 297.903,199.607 295.5,199.5C 295.5,200.5 295.5,201.5 295.5,202.5C 294.053,203.622 293.053,205.122 292.5,207C 291.207,207.49 289.873,207.657 288.5,207.5C 292.925,200.98 297.592,194.647 302.5,188.5 Z"/></g>
<g><path style="opacity:0.024" fill="#bbdbee" d="M 242.5,201.5 C 243.906,201.973 244.573,202.973 244.5,204.5C 243.094,204.027 242.427,203.027 242.5,201.5 Z"/></g>
<g><path style="opacity:0.62" fill="#3e75a3" d="M 28.5,138.5 C 28.5793,141.271 28.0793,143.937 27,146.5C 15.6455,170.909 8.47879,196.575 5.5,223.5C 4.83333,224.5 4.16667,225.5 3.5,226.5C 5.94426,195.375 14.2776,166.042 28.5,138.5 Z"/></g>
<g><path style="opacity:1" fill="#2e6a99" d="M 230.5,187.5 C 229.4,188.605 228.733,189.938 228.5,191.5C 225.781,193.219 223.781,195.553 222.5,198.5C 218.464,202.534 214.798,206.868 211.5,211.5C 203.16,219.84 195.16,228.507 187.5,237.5C 187.608,235.217 188.441,233.217 190,231.5C 193,228.5 196,225.5 199,222.5C 199.973,220.608 200.64,218.608 201,216.5C 202.763,215.056 204.763,214.056 207,213.5C 210.439,208.941 214.106,204.608 218,200.5C 219.009,198.975 219.509,197.308 219.5,195.5C 222.676,195.33 224.676,193.663 225.5,190.5C 226.94,189.048 228.606,188.048 230.5,187.5 Z"/></g>
<g><path style="opacity:1" fill="#d1e9f5" d="M 222.5,198.5 C 222.701,201.765 221.534,204.431 219,206.5C 216.213,207.805 213.713,209.472 211.5,211.5C 214.798,206.868 218.464,202.534 222.5,198.5 Z"/></g>
<g><path style="opacity:0.914" fill="#2c6ea4" d="M 480.5,159.5 C 489.747,182.164 495.08,205.831 496.5,230.5C 495.523,223.336 493.69,216.336 491,209.5C 490.465,203.485 489.799,197.485 489,191.5C 486.872,187.11 485.539,182.443 485,177.5C 481.092,172.147 479.592,166.147 480.5,159.5 Z"/></g>
<g><path style="opacity:0.008" fill="#bde9fb" d="M 244.5,204.5 C 245.906,204.973 246.573,205.973 246.5,207.5C 245.094,207.027 244.427,206.027 244.5,204.5 Z"/></g>
<g><path style="opacity:0.988" fill="#2a6698" d="M 287.5,194.5 C 284.082,200.337 280.416,206.004 276.5,211.5C 274.736,212.326 273.402,213.659 272.5,215.5C 271.957,215.44 271.624,215.107 271.5,214.5C 273.333,211.5 275.167,208.5 277,205.5C 280.067,203.097 282.4,200.097 284,196.5C 284.816,195.177 285.983,194.511 287.5,194.5 Z"/></g>
<g><path style="opacity:1" fill="#dff0f6" d="M 230.5,187.5 C 232.371,187.859 233.871,188.859 235,190.5C 237.533,194.261 240.033,197.928 242.5,201.5C 240.519,199.856 238.519,198.19 236.5,196.5C 235.28,196.887 234.613,197.72 234.5,199C 237.309,203.457 239.976,207.957 242.5,212.5C 240.605,211.027 238.939,209.36 237.5,207.5C 236.271,204.269 234.271,201.602 231.5,199.5C 228.136,202.529 225.136,205.863 222.5,209.5C 217.49,214.512 212.823,219.845 208.5,225.5C 202.464,231.237 197.13,237.571 192.5,244.5C 186.5,251.5 180.5,258.5 174.5,265.5C 172.167,268.167 169.833,268.167 167.5,265.5C 166.697,264.577 166.53,263.577 167,262.5C 173.669,254.333 180.502,246.333 187.5,238.5C 187.5,238.167 187.5,237.833 187.5,237.5C 195.16,228.507 203.16,219.84 211.5,211.5C 212.515,213.047 213.849,213.88 215.5,214C 218.555,210.687 221.222,207.187 223.5,203.5C 224.5,203.5 225.5,203.5 226.5,203.5C 226.859,199.07 229.193,196.737 233.5,196.5C 233.662,194.473 233.495,192.473 233,190.5C 231.289,189.419 229.789,189.752 228.5,191.5C 228.733,189.938 229.4,188.605 230.5,187.5 Z"/></g>
<g><path style="opacity:1" fill="#3a739b" d="M 237.5,207.5 C 235.162,206.563 232.995,205.23 231,203.5C 228.351,205.857 225.517,207.857 222.5,209.5C 225.136,205.863 228.136,202.529 231.5,199.5C 234.271,201.602 236.271,204.269 237.5,207.5 Z"/></g>
<g><path style="opacity:1" fill="#f0f2f1" d="M 211.5,211.5 C 213.713,209.472 216.213,207.805 219,206.5C 221.534,204.431 222.701,201.765 222.5,198.5C 223.781,195.553 225.781,193.219 228.5,191.5C 229.789,189.752 231.289,189.419 233,190.5C 233.495,192.473 233.662,194.473 233.5,196.5C 229.193,196.737 226.859,199.07 226.5,203.5C 225.5,203.5 224.5,203.5 223.5,203.5C 221.222,207.187 218.555,210.687 215.5,214C 213.849,213.88 212.515,213.047 211.5,211.5 Z"/></g>
<g><path style="opacity:0.027" fill="#abd9f4" d="M 248.5,209.5 C 248.833,209.5 249.167,209.5 249.5,209.5C 250.11,210.391 250.443,211.391 250.5,212.5C 249.094,212.027 248.427,211.027 248.5,209.5 Z"/></g>
<g><path style="opacity:0.737" fill="#2e6c9e" d="M 249.5,209.5 C 254.09,213.751 258.757,218.084 263.5,222.5C 266.227,220.42 268.894,218.42 271.5,216.5C 271.5,216.833 271.5,217.167 271.5,217.5C 268.853,220.764 266.186,224.097 263.5,227.5C 261.812,226.479 260.479,225.145 259.5,223.5C 258.503,220.845 256.836,218.845 254.5,217.5C 253.864,215.205 252.531,213.539 250.5,212.5C 250.443,211.391 250.11,210.391 249.5,209.5 Z"/></g>
<g><path style="opacity:0.396" fill="#8eb9d9" d="M 250.5,212.5 C 252.531,213.539 253.864,215.205 254.5,217.5C 252.457,216.421 251.124,214.754 250.5,212.5 Z"/></g>
<g><path style="opacity:1" fill="#2e698f" d="M 323.5,210.5 C 325.261,211.313 326.928,212.313 328.5,213.5C 317.833,213.5 307.167,213.5 296.5,213.5C 297.134,212.053 298.301,211.387 300,211.5C 306.653,212.753 313.153,212.753 319.5,211.5C 320.568,210.566 321.901,210.232 323.5,210.5 Z"/></g>
<g><path style="opacity:0.176" fill="#b3d4ed" d="M 242.5,212.5 C 244.262,213.262 245.262,214.596 245.5,216.5C 243.738,215.738 242.738,214.404 242.5,212.5 Z"/></g>
<g><path style="opacity:1" fill="#a7ceea" d="M 276.5,211.5 C 275.503,214.155 273.836,216.155 271.5,217.5C 271.5,217.167 271.5,216.833 271.5,216.5C 272.167,216.5 272.5,216.167 272.5,215.5C 273.402,213.659 274.736,212.326 276.5,211.5 Z"/></g>
<g><path style="opacity:1" fill="#4178a2" d="M 222.5,209.5 C 221.5,211.5 220.5,213.5 219.5,215.5C 216.75,218.431 214.084,221.598 211.5,225C 210.552,225.483 209.552,225.649 208.5,225.5C 212.823,219.845 217.49,214.512 222.5,209.5 Z"/></g>
<g><path style="opacity:1" fill="#f1f1f1" d="M 328.5,223.5 C 327.04,221.665 325.707,219.665 324.5,217.5C 322.261,219.133 321.928,221.133 323.5,223.5C 322.174,260.433 322.174,297.433 323.5,334.5C 324.5,297.506 324.833,260.506 324.5,223.5C 325.498,260.663 325.832,297.996 325.5,335.5C 324.167,335.5 322.833,335.5 321.5,335.5C 321.833,298.161 321.5,260.827 320.5,223.5C 317.869,222.276 315.035,221.609 312,221.5C 308.973,221.382 306.139,221.882 303.5,223C 308.481,223.748 313.481,224.248 318.5,224.5C 318.333,261.502 318.5,298.502 319,335.5C 322.285,338.035 325.452,338.035 328.5,335.5C 328.739,337.467 328.406,339.301 327.5,341C 328.094,341.464 328.761,341.631 329.5,341.5C 329.5,342.167 329.833,342.5 330.5,342.5C 330.5,342.833 330.5,343.167 330.5,343.5C 331.684,344.688 331.684,345.855 330.5,347C 326.644,347.177 322.977,347.677 319.5,348.5C 314.167,348.5 308.833,348.5 303.5,348.5C 303.631,347.624 303.298,346.957 302.5,346.5C 300.253,347.374 297.92,347.708 295.5,347.5C 296.979,343.723 297.812,339.723 298,335.5C 299.011,334.663 300.178,334.33 301.5,334.5C 301.5,313.833 301.5,293.167 301.5,272.5C 300.041,272.567 298.708,272.234 297.5,271.5C 297.5,252.833 297.5,234.167 297.5,215.5C 307.833,215.5 318.167,215.5 328.5,215.5C 328.5,218.167 328.5,220.833 328.5,223.5 Z"/></g>
<g><path style="opacity:1" fill="#1d73b4" d="M 237.5,207.5 C 238.939,209.36 240.605,211.027 242.5,212.5C 242.738,214.404 243.738,215.738 245.5,216.5C 246.806,218.816 248.139,221.15 249.5,223.5C 249.517,225.565 249.85,227.565 250.5,229.5C 249.883,229.611 249.383,229.944 249,230.5C 247.755,226.502 246.922,226.669 246.5,231C 246.703,233.811 247.369,236.478 248.5,239C 247.833,239.667 247.167,240.333 246.5,241C 247.973,241.71 248.64,242.876 248.5,244.5C 236.416,242.551 224.083,241.884 211.5,242.5C 222.008,241.833 232.674,241.167 243.5,240.5C 243.41,236.158 241.577,232.825 238,230.5C 237,230.833 236,231.167 235,231.5C 233.416,230.139 231.582,229.472 229.5,229.5C 230.009,225.6 228.342,223.267 224.5,222.5C 227.833,221.833 231.167,221.167 234.5,220.5C 231.434,219.306 228.267,219.306 225,220.5C 224.517,219.552 224.351,218.552 224.5,217.5C 229.5,217.5 234.5,217.5 239.5,217.5C 239.921,219.91 241.254,221.743 243.5,223C 244.635,223.749 245.635,223.583 246.5,222.5C 244.086,219.391 241.586,216.391 239,213.5C 238.517,212.552 238.351,211.552 238.5,210.5C 233.821,210.334 229.155,210.501 224.5,211C 223.22,212.966 221.553,214.466 219.5,215.5C 220.5,213.5 221.5,211.5 222.5,209.5C 225.517,207.857 228.351,205.857 231,203.5C 232.995,205.23 235.162,206.563 237.5,207.5 Z"/></g>
<g><path style="opacity:1" fill="#19639b" d="M 319.5,211.5 C 313.153,212.753 306.653,212.753 300,211.5C 298.301,211.387 297.134,212.053 296.5,213.5C 296.167,213.5 295.833,213.5 295.5,213.5C 294.503,230.659 294.17,247.992 294.5,265.5C 293.833,265.5 293.5,265.167 293.5,264.5C 293.5,248.167 293.5,231.833 293.5,215.5C 294.679,208.117 298.346,206.617 304.5,211C 309.489,211.499 314.489,211.666 319.5,211.5 Z"/></g>
<g><path style="opacity:1" fill="#3c70a7" d="M 330.5,213.5 C 331.479,216.625 331.813,219.958 331.5,223.5C 331.197,262.52 331.53,301.52 332.5,340.5C 338.982,341.045 345.315,341.712 351.5,342.5C 344.5,342.5 337.5,342.5 330.5,342.5C 330.5,299.5 330.5,256.5 330.5,213.5 Z"/></g>
<g><path style="opacity:1" fill="#1875b2" d="M 323.5,210.5 C 328.543,210.247 332.543,212.081 335.5,216C 334.282,217.438 333.615,219.105 333.5,221C 334.803,240.258 335.469,259.592 335.5,279C 335.167,297.5 334.833,316 334.5,334.5C 333.667,297.838 333.167,261.171 333,224.5C 332.617,223.944 332.117,223.611 331.5,223.5C 331.813,219.958 331.479,216.625 330.5,213.5C 329.833,213.5 329.167,213.5 328.5,213.5C 326.928,212.313 325.261,211.313 323.5,210.5 Z"/></g>
<g><path style="opacity:1" fill="#3273a6" d="M 249.5,223.5 C 253.984,228.467 257.984,233.8 261.5,239.5C 259.355,238.011 257.022,237.011 254.5,236.5C 254.649,237.552 254.483,238.552 254,239.5C 253.987,235.695 252.821,232.362 250.5,229.5C 249.85,227.565 249.517,225.565 249.5,223.5 Z"/></g>
<g><path style="opacity:1" fill="#e2f0f6" d="M 307.5,169.5 C 307.815,171.226 307.981,172.893 308,174.5C 306.989,175.337 305.822,175.67 304.5,175.5C 304.649,176.552 304.483,177.552 304,178.5C 301.056,180.372 299.889,183.039 300.5,186.5C 301.5,186.5 302.5,186.5 303.5,186.5C 303.5,186.833 303.5,187.167 303.5,187.5C 302.833,187.5 302.5,187.833 302.5,188.5C 297.592,194.647 292.925,200.98 288.5,207.5C 280.197,217.982 272.03,228.648 264,239.5C 263.23,240.598 262.397,240.598 261.5,239.5C 257.984,233.8 253.984,228.467 249.5,223.5C 248.139,221.15 246.806,218.816 245.5,216.5C 248.297,218.795 250.964,221.295 253.5,224C 255.066,224.765 256.399,224.598 257.5,223.5C 258.167,223.5 258.833,223.5 259.5,223.5C 260.479,225.145 261.812,226.479 263.5,227.5C 266.186,224.097 268.853,220.764 271.5,217.5C 273.836,216.155 275.503,214.155 276.5,211.5C 280.416,206.004 284.082,200.337 287.5,194.5C 290.848,191.149 293.848,187.482 296.5,183.5C 299.336,180.487 301.669,177.154 303.5,173.5C 305.194,172.473 306.527,171.139 307.5,169.5 Z"/></g>
<g><path style="opacity:0.204" fill="#9ec4e1" d="M 254.5,217.5 C 256.836,218.845 258.503,220.845 259.5,223.5C 258.833,223.5 258.167,223.5 257.5,223.5C 256.5,221.5 255.5,219.5 254.5,217.5 Z"/></g>
<g><path style="opacity:1" fill="#3f75a0" d="M 208.5,225.5 C 207.955,227.593 207.122,229.593 206,231.5C 203.09,234.287 200.423,237.287 198,240.5C 197.383,241.449 197.549,242.282 198.5,243C 196.75,244.319 194.75,244.819 192.5,244.5C 197.13,237.571 202.464,231.237 208.5,225.5 Z"/></g>
<g><path style="opacity:1" fill="#3874a6" d="M 288.5,207.5 C 286.682,211.116 285.016,214.783 283.5,218.5C 282.518,219.141 281.518,219.807 280.5,220.5C 277.844,223.801 275.678,227.468 274,231.5C 270.621,235.216 266.954,238.549 263,241.5C 261.97,241.164 261.47,240.497 261.5,239.5C 262.397,240.598 263.23,240.598 264,239.5C 272.03,228.648 280.197,217.982 288.5,207.5 Z"/></g>
<g><path style="opacity:1" fill="#1874ba" d="M 283.5,218.5 C 283.631,222.743 284.298,227.243 285.5,232C 284.668,234.478 284.501,236.978 285,239.5C 285.667,240.833 286.333,240.833 287,239.5C 287.171,244.533 287.671,249.533 288.5,254.5C 289.499,244.188 289.832,233.855 289.5,223.5C 290.5,223.5 291.5,223.5 292.5,223.5C 292.832,234.187 292.499,244.854 291.5,255.5C 290.543,257.918 289.209,260.084 287.5,262C 282.167,262.167 276.833,262.333 271.5,262.5C 265.754,262.474 260.254,261.807 255,260.5C 253.71,262.792 252.043,264.792 250,266.5C 249.829,258.989 249.329,251.655 248.5,244.5C 248.64,242.876 247.973,241.71 246.5,241C 247.167,240.333 247.833,239.667 248.5,239C 247.369,236.478 246.703,233.811 246.5,231C 246.922,226.669 247.755,226.502 249,230.5C 249.383,229.944 249.883,229.611 250.5,229.5C 252.821,232.362 253.987,235.695 254,239.5C 254.483,238.552 254.649,237.552 254.5,236.5C 257.022,237.011 259.355,238.011 261.5,239.5C 261.47,240.497 261.97,241.164 263,241.5C 266.954,238.549 270.621,235.216 274,231.5C 275.678,227.468 277.844,223.801 280.5,220.5C 281.518,219.807 282.518,219.141 283.5,218.5 Z"/></g>
<g><path style="opacity:1" fill="#e9fdfc" d="M 148.5,141.5 C 148.5,208.833 148.5,276.167 148.5,343.5C 146.879,343.213 145.879,342.213 145.5,340.5C 146.831,274.706 146.831,209.039 145.5,143.5C 143.504,207.158 142.837,271.158 143.5,335.5C 143.167,335.5 142.833,335.5 142.5,335.5C 142.5,270.833 142.5,206.167 142.5,141.5C 144.5,141.5 146.5,141.5 148.5,141.5 Z"/></g>
<g><path style="opacity:0.188" fill="#5387ac" d="M 3.5,228.5 C 3.33346,240.838 3.50012,253.171 4,265.5C 4.48578,274.402 5.65245,283.069 7.5,291.5C 7.5,291.833 7.5,292.167 7.5,292.5C 7.5,294.5 7.5,296.5 7.5,298.5C 2.64319,275.359 1.30986,252.025 3.5,228.5 Z"/></g>
<g><path style="opacity:1" fill="#ddf6fe" d="M 246.5,245.5 C 246.5,277.5 246.5,309.5 246.5,341.5C 245.833,312.833 245.167,284.167 244.5,255.5C 243.532,253.393 243.198,251.059 243.5,248.5C 235.791,248.731 228.124,248.398 220.5,247.5C 218.167,247.5 215.833,247.5 213.5,247.5C 213.174,278.21 213.508,308.877 214.5,339.5C 213.812,340.855 212.812,341.855 211.5,342.5C 211.5,310.167 211.5,277.833 211.5,245.5C 223.167,245.5 234.833,245.5 246.5,245.5 Z"/></g>
<g><path style="opacity:1" fill="#3e78a9" d="M 192.5,244.5 C 190.753,250.155 187.253,254.488 182,257.5C 181.023,259.74 180.523,262.073 180.5,264.5C 178.435,264.517 176.435,264.85 174.5,265.5C 180.5,258.5 186.5,251.5 192.5,244.5 Z"/></g>
<g><path style="opacity:1" fill="#1b73b9" d="M 211.5,242.5 C 209.073,244.508 208.073,247.174 208.5,250.5C 209.127,266.322 209.461,282.155 209.5,298C 209.499,312.516 208.833,326.683 207.5,340.5C 206.849,326.402 206.183,312.402 205.5,298.5C 205.5,297.833 205.167,297.5 204.5,297.5C 192.833,297.5 181.167,297.5 169.5,297.5C 168.508,297.328 167.842,297.662 167.5,298.5C 166.761,298.369 166.094,298.536 165.5,299C 164.624,300.586 163.624,302.086 162.5,303.5C 162.153,314.532 161.153,325.198 159.5,335.5C 160.815,324.215 160.815,312.882 159.5,301.5C 161.232,299.082 162.565,296.415 163.5,293.5C 162.234,292.276 161.067,290.943 160,289.5C 159.169,281.812 159.335,274.145 160.5,266.5C 161.95,267.85 162.617,269.516 162.5,271.5C 163.833,271.5 165.167,271.5 166.5,271.5C 166.5,269.5 166.5,267.5 166.5,265.5C 166.833,265.5 167.167,265.5 167.5,265.5C 167.447,269.138 169.113,271.138 172.5,271.5C 172.704,269.315 173.37,267.315 174.5,265.5C 176.435,264.85 178.435,264.517 180.5,264.5C 180.523,262.073 181.023,259.74 182,257.5C 187.253,254.488 190.753,250.155 192.5,244.5C 194.75,244.819 196.75,244.319 198.5,243C 197.549,242.282 197.383,241.449 198,240.5C 200.423,237.287 203.09,234.287 206,231.5C 207.122,229.593 207.955,227.593 208.5,225.5C 209.552,225.649 210.552,225.483 211.5,225C 214.084,221.598 216.75,218.431 219.5,215.5C 221.553,214.466 223.22,212.966 224.5,211C 229.155,210.501 233.821,210.334 238.5,210.5C 238.351,211.552 238.517,212.552 239,213.5C 241.586,216.391 244.086,219.391 246.5,222.5C 245.635,223.583 244.635,223.749 243.5,223C 241.254,221.743 239.921,219.91 239.5,217.5C 234.5,217.5 229.5,217.5 224.5,217.5C 224.351,218.552 224.517,219.552 225,220.5C 228.267,219.306 231.434,219.306 234.5,220.5C 231.167,221.167 227.833,221.833 224.5,222.5C 228.342,223.267 230.009,225.6 229.5,229.5C 231.582,229.472 233.416,230.139 235,231.5C 236,231.167 237,230.833 238,230.5C 241.577,232.825 243.41,236.158 243.5,240.5C 232.674,241.167 222.008,241.833 211.5,242.5 Z"/></g>
<g><path style="opacity:1" fill="#2b6b9e" d="M 187.5,238.5 C 180.502,246.333 173.669,254.333 167,262.5C 166.53,263.577 166.697,264.577 167.5,265.5C 167.167,265.5 166.833,265.5 166.5,265.5C 166.167,265.5 165.833,265.5 165.5,265.5C 165.34,263.801 165.506,262.134 166,260.5C 171.561,254.474 176.728,248.141 181.5,241.5C 180.249,240.369 179.249,239.036 178.5,237.5C 178.747,234.918 180.08,234.085 182.5,235C 183.337,236.011 183.67,237.178 183.5,238.5C 184.833,238.5 186.167,238.5 187.5,238.5 Z"/></g>
<g><path style="opacity:1" fill="#1c73b4" d="M 295.5,202.5 C 295.5,204.5 295.5,206.5 295.5,208.5C 292.956,208.104 290.789,208.771 289,210.5C 289.077,214.132 289.41,217.799 290,221.5C 290.495,219.527 290.662,217.527 290.5,215.5C 291.5,215.5 292.5,215.5 293.5,215.5C 293.5,231.833 293.5,248.167 293.5,264.5C 291.917,266.508 290.917,268.841 290.5,271.5C 290.768,268.881 290.435,266.381 289.5,264C 277.833,263.333 266.167,263.333 254.5,264C 253.944,264.383 253.611,264.883 253.5,265.5C 252.778,265.918 252.278,266.584 252,267.5C 251.5,291.831 251.333,316.164 251.5,340.5C 250.5,340.5 249.5,340.5 248.5,340.5C 248.5,308.5 248.5,276.5 248.5,244.5C 249.329,251.655 249.829,258.989 250,266.5C 252.043,264.792 253.71,262.792 255,260.5C 260.254,261.807 265.754,262.474 271.5,262.5C 276.833,262.333 282.167,262.167 287.5,262C 289.209,260.084 290.543,257.918 291.5,255.5C 292.499,244.854 292.832,234.187 292.5,223.5C 291.5,223.5 290.5,223.5 289.5,223.5C 289.832,233.855 289.499,244.188 288.5,254.5C 287.671,249.533 287.171,244.533 287,239.5C 286.333,240.833 285.667,240.833 285,239.5C 284.501,236.978 284.668,234.478 285.5,232C 284.298,227.243 283.631,222.743 283.5,218.5C 285.016,214.783 286.682,211.116 288.5,207.5C 289.873,207.657 291.207,207.49 292.5,207C 293.053,205.122 294.053,203.622 295.5,202.5 Z"/></g>
<g><path style="opacity:0.791" fill="#206d9f" d="M 5.5,223.5 C 5.45492,231.344 5.12158,239.177 4.5,247C 5.31371,261.853 6.31371,276.687 7.5,291.5C 5.65245,283.069 4.48578,274.402 4,265.5C 3.50012,253.171 3.33346,240.838 3.5,228.5C 3.5,227.833 3.5,227.167 3.5,226.5C 4.16667,225.5 4.83333,224.5 5.5,223.5 Z"/></g>
<g><path style="opacity:1" fill="#1b72be" d="M 157.5,143.5 C 158.167,143.5 158.833,143.5 159.5,143.5C 159.566,178.311 159.566,212.977 159.5,247.5C 158.758,254.579 160.758,260.579 165.5,265.5C 165.833,265.5 166.167,265.5 166.5,265.5C 166.5,267.5 166.5,269.5 166.5,271.5C 165.167,271.5 163.833,271.5 162.5,271.5C 162.617,269.516 161.95,267.85 160.5,266.5C 159.335,274.145 159.169,281.812 160,289.5C 161.067,290.943 162.234,292.276 163.5,293.5C 162.565,296.415 161.232,299.082 159.5,301.5C 160.815,312.882 160.815,324.215 159.5,335.5C 159.167,335.5 158.833,335.5 158.5,335.5C 157.501,272.002 157.168,208.336 157.5,144.5C 157.5,144.167 157.5,143.833 157.5,143.5 Z"/></g>
<g><path style="opacity:1" fill="#2f79a2" d="M 167.5,265.5 C 169.833,268.167 172.167,268.167 174.5,265.5C 173.37,267.315 172.704,269.315 172.5,271.5C 169.113,271.138 167.447,269.138 167.5,265.5 Z"/></g>
<g><path style="opacity:1" fill="#c6e6f8" d="M 253.5,265.5 C 265.345,265.172 277.012,265.505 288.5,266.5C 276.988,266.172 265.654,266.505 254.5,267.5C 254.33,268.822 254.663,269.989 255.5,271C 254.838,294.931 254.171,318.764 253.5,342.5C 253.5,316.833 253.5,291.167 253.5,265.5 Z"/></g>
<g><path style="opacity:1" fill="#326fa0" d="M 211.5,242.5 C 224.083,241.884 236.416,242.551 248.5,244.5C 248.5,276.5 248.5,308.5 248.5,340.5C 249.5,340.5 250.5,340.5 251.5,340.5C 251.333,316.164 251.5,291.831 252,267.5C 252.278,266.584 252.778,265.918 253.5,265.5C 253.5,291.167 253.5,316.833 253.5,342.5C 250.941,342.802 248.607,342.468 246.5,341.5C 246.5,309.5 246.5,277.5 246.5,245.5C 240.676,244.834 234.676,244.5 228.5,244.5C 222.092,244.523 215.925,245.19 210,246.5C 210.462,278.132 210.629,309.799 210.5,341.5C 208.452,341.84 207.452,341.507 207.5,340.5C 208.833,326.683 209.499,312.516 209.5,298C 209.461,282.155 209.127,266.322 208.5,250.5C 208.073,247.174 209.073,244.508 211.5,242.5 Z"/></g>
<g><path style="opacity:1" fill="#f1f1f0" d="M 220.5,247.5 C 228.124,248.398 235.791,248.731 243.5,248.5C 243.198,251.059 243.532,253.393 244.5,255.5C 244.5,282.833 244.5,310.167 244.5,337.5C 240.631,336.4 236.631,335.734 232.5,335.5C 226.483,336.173 220.483,336.839 214.5,337.5C 214.5,307.833 214.5,278.167 214.5,248.5C 216.735,248.795 218.735,248.461 220.5,247.5 Z"/></g>
<g><path style="opacity:1" fill="#e4fdff" d="M 254.5,267.5 C 265.654,266.505 276.988,266.172 288.5,266.5C 288.5,291.5 288.5,316.5 288.5,341.5C 287.502,317.006 287.169,292.339 287.5,267.5C 276.5,267.5 265.5,267.5 254.5,267.5 Z"/></g>
<g><path style="opacity:1" fill="#c9e6fc" d="M 295.5,213.5 C 295.833,213.5 296.167,213.5 296.5,213.5C 307.167,213.5 317.833,213.5 328.5,213.5C 329.167,213.5 329.833,213.5 330.5,213.5C 330.5,256.5 330.5,299.5 330.5,342.5C 329.833,342.5 329.5,342.167 329.5,341.5C 329.5,299.167 329.5,256.833 329.5,214.5C 318.5,214.5 307.5,214.5 296.5,214.5C 296.5,233.5 296.5,252.5 296.5,271.5C 296.831,295.339 296.498,319.006 295.5,342.5C 295.5,299.5 295.5,256.5 295.5,213.5 Z"/></g>
<g><path style="opacity:1" fill="#e9feff" d="M 329.5,341.5 C 328.761,341.631 328.094,341.464 327.5,341C 328.406,339.301 328.739,337.467 328.5,335.5C 328.5,298.167 328.5,260.833 328.5,223.5C 328.5,220.833 328.5,218.167 328.5,215.5C 318.167,215.5 307.833,215.5 297.5,215.5C 297.5,234.167 297.5,252.833 297.5,271.5C 297.167,271.5 296.833,271.5 296.5,271.5C 296.5,252.5 296.5,233.5 296.5,214.5C 307.5,214.5 318.5,214.5 329.5,214.5C 329.5,256.833 329.5,299.167 329.5,341.5 Z"/></g>
<g><path style="opacity:1" fill="#f0f2e9" d="M 328.5,223.5 C 328.5,260.833 328.5,298.167 328.5,335.5C 325.452,338.035 322.285,338.035 319,335.5C 318.5,298.502 318.333,261.502 318.5,224.5C 313.481,224.248 308.481,223.748 303.5,223C 306.139,221.882 308.973,221.382 312,221.5C 315.035,221.609 317.869,222.276 320.5,223.5C 321.5,260.827 321.833,298.161 321.5,335.5C 322.833,335.5 324.167,335.5 325.5,335.5C 325.832,297.996 325.498,260.663 324.5,223.5C 324.167,223.5 323.833,223.5 323.5,223.5C 321.928,221.133 322.261,219.133 324.5,217.5C 325.707,219.665 327.04,221.665 328.5,223.5 Z"/></g>
<g><path style="opacity:1" fill="#f6edf7" d="M 323.5,223.5 C 323.833,223.5 324.167,223.5 324.5,223.5C 324.833,260.506 324.5,297.506 323.5,334.5C 322.174,297.433 322.174,260.433 323.5,223.5 Z"/></g>
<g><path style="opacity:1" fill="#ecf4f8" d="M 220.5,247.5 C 218.735,248.461 216.735,248.795 214.5,248.5C 214.5,278.167 214.5,307.833 214.5,337.5C 220.483,336.839 226.483,336.173 232.5,335.5C 236.631,335.734 240.631,336.4 244.5,337.5C 244.5,310.167 244.5,282.833 244.5,255.5C 245.167,284.167 245.833,312.833 246.5,341.5C 248.607,342.468 250.941,342.802 253.5,342.5C 254.171,318.764 254.838,294.931 255.5,271C 254.663,269.989 254.33,268.822 254.5,267.5C 265.5,267.5 276.5,267.5 287.5,267.5C 287.169,292.339 287.502,317.006 288.5,341.5C 290.607,342.468 292.941,342.802 295.5,342.5C 296.498,319.006 296.831,295.339 296.5,271.5C 296.833,271.5 297.167,271.5 297.5,271.5C 298.708,272.234 300.041,272.567 301.5,272.5C 301.5,293.167 301.5,313.833 301.5,334.5C 300.178,334.33 299.011,334.663 298,335.5C 297.812,339.723 296.979,343.723 295.5,347.5C 297.92,347.708 300.253,347.374 302.5,346.5C 303.298,346.957 303.631,347.624 303.5,348.5C 282.229,348.311 260.896,348.311 239.5,348.5C 241.372,346.938 243.705,345.938 246.5,345.5C 245.19,342.439 242.857,341.106 239.5,341.5C 239.5,340.167 239.5,338.833 239.5,337.5C 234.489,337.334 229.489,337.501 224.5,338C 223.663,339.011 223.33,340.178 223.5,341.5C 220.482,341.335 217.482,341.502 214.5,342C 212.393,343.264 211.393,345.097 211.5,347.5C 215.658,346.461 219.658,346.461 223.5,347.5C 217.764,348.404 212.097,348.404 206.5,347.5C 205.737,346.732 204.737,346.232 203.5,346C 194.482,345.832 185.482,345.332 176.5,344.5C 185.059,343.82 193.559,343.153 202,342.5C 202.5,329.171 202.667,315.837 202.5,302.5C 203.167,314.5 203.833,326.5 204.5,338.5C 204.5,340.167 204.5,341.833 204.5,343.5C 207.059,343.802 209.393,343.468 211.5,342.5C 212.812,341.855 213.812,340.855 214.5,339.5C 213.508,308.877 213.174,278.21 213.5,247.5C 215.833,247.5 218.167,247.5 220.5,247.5 Z"/></g>
<g><path style="opacity:1" fill="#f1f1f0" d="M 256.5,269.5 C 266.5,269.5 276.5,269.5 286.5,269.5C 286.5,293.833 286.5,318.167 286.5,342.5C 276.5,342.5 266.5,342.5 256.5,342.5C 256.5,341.167 256.5,339.833 256.5,338.5C 262.641,338.899 262.975,337.899 257.5,335.5C 256.5,313.51 256.167,291.51 256.5,269.5 Z"/></g>
<g><path style="opacity:1" fill="#3c73a1" d="M 295.5,213.5 C 295.5,256.5 295.5,299.5 295.5,342.5C 292.941,342.802 290.607,342.468 288.5,341.5C 288.5,316.5 288.5,291.5 288.5,266.5C 277.012,265.505 265.345,265.172 253.5,265.5C 253.611,264.883 253.944,264.383 254.5,264C 266.167,263.333 277.833,263.333 289.5,264C 290.435,266.381 290.768,268.881 290.5,271.5C 290.5,294.5 290.5,317.5 290.5,340.5C 291.833,340.5 293.167,340.5 294.5,340.5C 294.5,315.5 294.5,290.5 294.5,265.5C 294.17,247.992 294.503,230.659 295.5,213.5 Z"/></g>
<g><path style="opacity:1" fill="#186fb5" d="M 293.5,264.5 C 293.5,265.167 293.833,265.5 294.5,265.5C 294.5,290.5 294.5,315.5 294.5,340.5C 293.167,340.5 291.833,340.5 290.5,340.5C 290.5,317.5 290.5,294.5 290.5,271.5C 290.917,268.841 291.917,266.508 293.5,264.5 Z"/></g>
<g><path style="opacity:1" fill="#2f71a6" d="M 496.5,271.5 C 494.577,295.854 488.911,319.188 479.5,341.5C 479.167,341.5 478.833,341.5 478.5,341.5C 478.643,339.738 478.309,338.071 477.5,336.5C 478.325,335.614 479.325,335.281 480.5,335.5C 481.293,330.957 482.793,326.624 485,322.5C 485.83,317.857 486.497,313.19 487,308.5C 489.578,305.854 490.078,302.854 488.5,299.5C 489.243,293.863 489.743,288.196 490,282.5C 491.406,281.332 492.572,281.665 493.5,283.5C 493.882,279.084 494.882,275.084 496.5,271.5 Z"/></g>
<g><path style="opacity:1" fill="#3c729b" d="M 246.5,245.5 C 234.833,245.5 223.167,245.5 211.5,245.5C 211.5,277.833 211.5,310.167 211.5,342.5C 209.5,342.5 207.5,342.5 205.5,342.5C 205.5,327.833 205.5,313.167 205.5,298.5C 206.183,312.402 206.849,326.402 207.5,340.5C 207.452,341.507 208.452,341.84 210.5,341.5C 210.629,309.799 210.462,278.132 210,246.5C 215.925,245.19 222.092,244.523 228.5,244.5C 234.676,244.5 240.676,244.834 246.5,245.5 Z"/></g>
<g><path style="opacity:1" fill="#e3fcfe" d="M 204.5,298.5 C 204.5,311.833 204.5,325.167 204.5,338.5C 203.833,326.5 203.167,314.5 202.5,302.5C 202.5,301.5 202.5,300.5 202.5,299.5C 193.161,299.334 183.827,299.5 174.5,300C 173.584,300.374 172.75,300.874 172,301.5C 171.167,313.514 171.334,325.514 172.5,337.5C 175.404,341.001 174.404,343.001 169.5,343.5C 169.5,343.167 169.5,342.833 169.5,342.5C 170.496,328.01 170.829,313.343 170.5,298.5C 181.833,298.5 193.167,298.5 204.5,298.5 Z"/></g>
<g><path style="opacity:1" fill="#2a6792" d="M 169.5,297.5 C 169.5,312.5 169.5,327.5 169.5,342.5C 162.833,342.5 156.167,342.5 149.5,342.5C 149.5,340.167 149.5,337.833 149.5,335.5C 149.833,335.5 150.167,335.5 150.5,335.5C 151.089,337.352 151.756,339.185 152.5,341C 157.489,341.499 162.489,341.666 167.5,341.5C 168.823,327.004 168.823,312.671 167.5,298.5C 167.842,297.662 168.508,297.328 169.5,297.5 Z"/></g>
<g><path style="opacity:1" fill="#c2ebfc" d="M 169.5,297.5 C 181.167,297.5 192.833,297.5 204.5,297.5C 204.5,297.833 204.5,298.167 204.5,298.5C 193.167,298.5 181.833,298.5 170.5,298.5C 170.829,313.343 170.496,328.01 169.5,342.5C 169.5,327.5 169.5,312.5 169.5,297.5 Z"/></g>
<g><path style="opacity:1" fill="#f1f0ef" d="M 145.5,143.5 C 146.831,209.039 146.831,274.706 145.5,340.5C 145.879,342.213 146.879,343.213 148.5,343.5C 155.5,343.5 162.5,343.5 169.5,343.5C 174.404,343.001 175.404,341.001 172.5,337.5C 171.334,325.514 171.167,313.514 172,301.5C 172.75,300.874 173.584,300.374 174.5,300C 183.827,299.5 193.161,299.334 202.5,299.5C 202.5,300.5 202.5,301.5 202.5,302.5C 202.667,315.837 202.5,329.171 202,342.5C 193.559,343.153 185.059,343.82 176.5,344.5C 185.482,345.332 194.482,345.832 203.5,346C 204.737,346.232 205.737,346.732 206.5,347.5C 185.657,347.817 164.657,348.151 143.5,348.5C 143.5,344.833 143.5,341.167 143.5,337.5C 145.496,273.175 146.163,208.509 145.5,143.5 Z"/></g>
<g><path style="opacity:1" fill="#7badcd" d="M 204.5,297.5 C 205.167,297.5 205.5,297.833 205.5,298.5C 205.5,313.167 205.5,327.833 205.5,342.5C 207.5,342.5 209.5,342.5 211.5,342.5C 209.393,343.468 207.059,343.802 204.5,343.5C 204.5,341.833 204.5,340.167 204.5,338.5C 204.5,325.167 204.5,311.833 204.5,298.5C 204.5,298.167 204.5,297.833 204.5,297.5 Z"/></g>
<g><path style="opacity:1" fill="#1a73b4" d="M 157.5,143.5 C 157.5,143.833 157.5,144.167 157.5,144.5C 156.85,144.196 156.183,143.863 155.5,143.5C 154.333,207.497 154.167,271.497 155,335.5C 156.292,336.791 157.458,336.791 158.5,335.5C 158.833,335.5 159.167,335.5 159.5,335.5C 161.153,325.198 162.153,314.532 162.5,303.5C 163.624,302.086 164.624,300.586 165.5,299C 166.094,298.536 166.761,298.369 167.5,298.5C 168.823,312.671 168.823,327.004 167.5,341.5C 162.489,341.666 157.489,341.499 152.5,341C 151.756,339.185 151.089,337.352 150.5,335.5C 150.833,335.5 151.167,335.5 151.5,335.5C 152.833,303.84 153.5,271.84 153.5,239.5C 153.5,207.16 152.833,175.16 151.5,143.5C 152.244,140.05 150.91,138.384 147.5,138.5C 142.265,136.14 139.598,137.806 139.5,143.5C 138.5,143.5 137.5,143.5 136.5,143.5C 136.543,140.912 137.543,138.746 139.5,137C 144.47,134.982 149.137,135.648 153.5,139C 154.337,140.011 154.67,141.178 154.5,142.5C 155.791,142.263 156.791,142.596 157.5,143.5 Z"/></g>
<g><path style="opacity:1" fill="#216fbe" d="M 165.5,304.5 C 166.828,309.119 167.494,314.119 167.5,319.5C 167.167,324.5 166.833,329.5 166.5,334.5C 165.501,324.522 165.168,314.522 165.5,304.5 Z"/></g>
<g><path style="opacity:0.984" fill="#2973ae" d="M 7.5,292.5 C 9.86624,302.117 12.3662,311.783 15,321.5C 17.1791,319.363 19.6791,319.029 22.5,320.5C 18.8342,324.368 18.5009,328.535 21.5,333C 21.472,334.07 21.1386,334.903 20.5,335.5C 19.6909,333.708 19.1909,331.708 19,329.5C 17.4113,326.902 15.578,324.568 13.5,322.5C 10.8766,314.673 8.87661,306.673 7.5,298.5C 7.5,296.5 7.5,294.5 7.5,292.5 Z"/></g>
<g><path style="opacity:0.706" fill="#3e7aa7" d="M 13.5,322.5 C 15.578,324.568 17.4113,326.902 19,329.5C 19.1909,331.708 19.6909,333.708 20.5,335.5C 20.954,338.14 22.1207,340.473 24,342.5C 24.4974,345.146 24.6641,347.813 24.5,350.5C 19.7663,341.682 16.0996,332.348 13.5,322.5 Z"/></g>
<g><path style="opacity:1" fill="#85b2d0" d="M 148.5,140.5 C 149.499,205.331 149.832,270.331 149.5,335.5C 149.5,337.833 149.5,340.167 149.5,342.5C 156.167,342.5 162.833,342.5 169.5,342.5C 169.5,342.833 169.5,343.167 169.5,343.5C 162.5,343.5 155.5,343.5 148.5,343.5C 148.5,276.167 148.5,208.833 148.5,141.5C 148.5,141.167 148.5,140.833 148.5,140.5 Z"/></g>
<g><path style="opacity:1" fill="#87b5d8" d="M 330.5,343.5 C 330.5,343.167 330.5,342.833 330.5,342.5C 337.5,342.5 344.5,342.5 351.5,342.5C 352.036,345.698 351.369,348.365 349.5,350.5C 302.167,350.5 254.833,350.5 207.5,350.5C 202.167,350.5 196.833,350.5 191.5,350.5C 174.658,350.83 157.992,350.497 141.5,349.5C 141.833,349.5 142.167,349.5 142.5,349.5C 212.002,349.833 281.335,349.499 350.5,348.5C 350.5,346.833 350.5,345.167 350.5,343.5C 343.833,343.5 337.167,343.5 330.5,343.5 Z"/></g>
<g><path style="opacity:1" fill="#f4f0ea" d="M 239.5,348.5 C 233.974,348.821 228.64,348.488 223.5,347.5C 219.658,346.461 215.658,346.461 211.5,347.5C 211.393,345.097 212.393,343.264 214.5,342C 217.482,341.502 220.482,341.335 223.5,341.5C 223.33,340.178 223.663,339.011 224.5,338C 229.489,337.501 234.489,337.334 239.5,337.5C 239.5,338.833 239.5,340.167 239.5,341.5C 242.857,341.106 245.19,342.439 246.5,345.5C 243.705,345.938 241.372,346.938 239.5,348.5 Z"/></g>
<g><path style="opacity:1" fill="#edebfb" d="M 223.5,343.5 C 228.875,343.172 234.208,343.505 239.5,344.5C 236.833,344.833 234.167,345.167 231.5,345.5C 228.41,345.478 225.743,344.812 223.5,343.5 Z"/></g>
<g><path style="opacity:1" fill="#e6fefe" d="M 142.5,335.5 C 142.833,335.5 143.167,335.5 143.5,335.5C 143.5,336.167 143.5,336.833 143.5,337.5C 143.5,341.167 143.5,344.833 143.5,348.5C 164.657,348.151 185.657,347.817 206.5,347.5C 212.097,348.404 217.764,348.404 223.5,347.5C 228.64,348.488 233.974,348.821 239.5,348.5C 260.896,348.311 282.229,348.311 303.5,348.5C 308.833,348.5 314.167,348.5 319.5,348.5C 329.833,348.5 340.167,348.5 350.5,348.5C 281.335,349.499 212.002,349.833 142.5,349.5C 142.5,344.833 142.5,340.167 142.5,335.5 Z"/></g>
<g><path style="opacity:1" fill="#e9f5fa" d="M 330.5,343.5 C 337.167,343.5 343.833,343.5 350.5,343.5C 350.5,345.167 350.5,346.833 350.5,348.5C 340.167,348.5 329.833,348.5 319.5,348.5C 322.977,347.677 326.644,347.177 330.5,347C 331.684,345.855 331.684,344.688 330.5,343.5 Z"/></g>
<g><path style="opacity:1" fill="#276ea4" d="M 207.5,350.5 C 254.833,350.5 302.167,350.5 349.5,350.5C 330.326,351.229 310.993,351.896 291.5,352.5C 263.341,351.875 235.341,351.209 207.5,350.5 Z"/></g>
<g><path style="opacity:1" fill="#2472ab" d="M 138.5,335.5 C 138.833,335.5 139.167,335.5 139.5,335.5C 139.334,339.846 139.501,344.179 140,348.5C 140.383,347.944 140.883,347.611 141.5,347.5C 141.5,348.167 141.5,348.833 141.5,349.5C 157.992,350.497 174.658,350.83 191.5,350.5C 190.828,351.267 189.995,351.934 189,352.5C 174.419,352.357 158.252,352.191 140.5,352C 138.58,346.803 137.913,341.303 138.5,335.5 Z"/></g>
<g><path style="opacity:0.494" fill="#4481a3" d="M 24.5,351.5 C 25.8333,351.5 27.1667,351.5 28.5,351.5C 28.3367,353.857 28.5034,356.19 29,358.5C 30.669,360.169 31.5023,362.169 31.5,364.5C 28.4074,360.653 26.0741,356.32 24.5,351.5 Z"/></g>
<g><path style="opacity:0.827" fill="#4478a0" d="M 478.5,341.5 C 478.833,341.5 479.167,341.5 479.5,341.5C 476.563,350.704 472.563,359.371 467.5,367.5C 467.576,364.027 468.242,360.694 469.5,357.5C 470.376,357.631 471.043,357.298 471.5,356.5C 473.753,350.88 476.087,345.88 478.5,341.5 Z"/></g>
<g><path style="opacity:0.616" fill="#306d9e" d="M 469.5,357.5 C 468.242,360.694 467.576,364.027 467.5,367.5C 461.977,378.339 455.31,388.339 447.5,397.5C 446.485,396.54 446.485,395.373 447.5,394C 456.46,384.245 462.96,373.078 467,360.5C 467.852,359.429 468.685,358.429 469.5,357.5 Z"/></g>
<g><path style="opacity:1" fill="#3474a7" d="M 33.5,368.5 C 34.5,368.5 35.5,368.5 36.5,368.5C 39.7844,378.061 45.6178,386.394 54,393.5C 53.5628,397.443 55.2295,399.776 59,400.5C 59.3599,402.608 60.0266,404.608 61,406.5C 66.5719,408.618 70.0719,412.618 71.5,418.5C 74.9567,419.462 76.2901,421.462 75.5,424.5C 62.3528,411.853 50.8528,397.853 41,382.5C 38.2204,377.938 35.7204,373.272 33.5,368.5 Z"/></g>
<g><path style="opacity:0.149" fill="#326d9f" d="M 446.5,399.5 C 439.882,408.452 432.549,416.785 424.5,424.5C 424.421,423.07 424.754,421.736 425.5,420.5C 430.167,416.5 434.5,412.167 438.5,407.5C 439.499,404.839 440.499,402.172 441.5,399.5C 443.299,398.212 444.965,398.212 446.5,399.5 Z"/></g>
<g><path style="opacity:0.125" fill="#2f6593" d="M 424.5,424.5 C 417.05,432.622 408.717,439.622 399.5,445.5C 407.003,438.567 414.336,431.401 421.5,424C 422.577,423.53 423.577,423.697 424.5,424.5 Z"/></g>
<g><path style="opacity:0.718" fill="#39739f" d="M 75.5,424.5 C 80.5081,424.168 83.5081,426.502 84.5,431.5C 92.8572,438.446 101.524,444.946 110.5,451C 111.252,451.671 111.586,452.504 111.5,453.5C 98.0282,445.751 86.0282,436.084 75.5,424.5 Z"/></g>
<g><path style="opacity:0.059" fill="#306d9a" d="M 111.5,453.5 C 115.461,454.479 118.794,456.479 121.5,459.5C 117.495,458.502 114.161,456.502 111.5,453.5 Z"/></g>
<g><path style="opacity:0.325" fill="#226495" d="M 386.5,454.5 C 380.71,459.236 374.376,463.236 367.5,466.5C 366.262,466.19 366.262,465.69 367.5,465C 371.841,461.828 376.508,459.161 381.5,457C 382.833,456.333 382.833,455.667 381.5,455C 383.134,454.506 384.801,454.34 386.5,454.5 Z"/></g>
<g><path style="opacity:0.173" fill="#2b6d9f" d="M 121.5,459.5 C 125.34,460.085 129.007,461.251 132.5,463C 132.833,464 133.167,465 133.5,466C 137.228,466.943 140.228,468.777 142.5,471.5C 134.98,468.292 127.98,464.292 121.5,459.5 Z"/></g>
<g><path style="opacity:0.871" fill="#3171a7" d="M 144.5,472.5 C 149.338,472.421 154.004,473.255 158.5,475C 159.833,476 159.833,477 158.5,478C 161.101,478.92 163.768,479.587 166.5,480C 165.584,480.278 164.918,480.778 164.5,481.5C 157.421,479.258 150.754,476.258 144.5,472.5 Z"/></g>
<g><path style="opacity:0.369" fill="#2f6593" d="M 365.5,467.5 C 358.933,471.615 351.933,474.949 344.5,477.5C 344.47,476.503 344.97,475.836 346,475.5C 352.259,472.62 358.426,469.62 364.5,466.5C 365.107,466.624 365.44,466.957 365.5,467.5 Z"/></g>
<g><path style="opacity:0.396" fill="#3a74a2" d="M 342.5,478.5 C 334.546,482.299 326.213,485.299 317.5,487.5C 318.64,486.199 319.973,485.032 321.5,484C 326.518,483.202 331.184,481.535 335.5,479C 337.81,478.503 340.143,478.337 342.5,478.5 Z"/></g>
<g><path style="opacity:0.235" fill="#6596bc" d="M 176.5,485.5 C 179.152,485.41 181.485,486.076 183.5,487.5C 180.848,487.59 178.515,486.924 176.5,485.5 Z"/></g>
<g><path style="opacity:0.271" fill="#669bc3" d="M 183.5,487.5 C 186.152,487.41 188.485,488.076 190.5,489.5C 187.848,489.59 185.515,488.924 183.5,487.5 Z"/></g>
<g><path style="opacity:0.537" fill="#6691b3" d="M 309.5,487.5 C 311.833,487.5 314.167,487.5 316.5,487.5C 313.146,489.258 309.479,490.258 305.5,490.5C 307.076,489.857 308.41,488.857 309.5,487.5 Z"/></g>
<g><path style="opacity:1" fill="#1f72b2" d="M 164.5,481.5 C 171.831,481.952 179.165,482.452 186.5,483C 185.167,483.667 185.167,484.333 186.5,485C 194.575,487.847 202.908,489.513 211.5,490C 216.426,491.036 221.093,490.536 225.5,488.5C 227.949,488.98 230.115,489.98 232,491.5C 233.016,490.366 233.683,490.699 234,492.5C 234.667,489.833 235.333,489.833 236,492.5C 236.85,491.576 237.85,491.576 239,492.5C 239.5,492.333 240,492.167 240.5,492C 239.289,491.107 239.289,490.274 240.5,489.5C 243.146,490.362 245.813,490.195 248.5,489C 248.167,488.667 247.833,488.333 247.5,488C 250.119,488.083 252.786,488.25 255.5,488.5C 255.5,490.5 255.5,492.5 255.5,494.5C 244.833,494.5 234.167,494.5 223.5,494.5C 223.082,493.778 222.416,493.278 221.5,493C 211.235,491.113 200.902,489.946 190.5,489.5C 188.485,488.076 186.152,487.41 183.5,487.5C 181.485,486.076 179.152,485.41 176.5,485.5C 172.216,484.739 168.216,483.405 164.5,481.5 Z"/></g>
<g><path style="opacity:0.204" fill="#7faed2" d="M 194.5,490.5 C 197.781,490.42 200.781,491.087 203.5,492.5C 200.219,492.58 197.219,491.913 194.5,490.5 Z"/></g>
<g><path style="opacity:0.963" fill="#487eaa" d="M 190.5,489.5 C 200.902,489.946 211.235,491.113 221.5,493C 222.416,493.278 223.082,493.778 223.5,494.5C 223.5,494.833 223.5,495.167 223.5,495.5C 216.593,495.229 209.926,494.229 203.5,492.5C 200.781,491.087 197.781,490.42 194.5,490.5C 192.901,490.768 191.568,490.434 190.5,489.5 Z"/></g>
<g><path style="opacity:0.835" fill="#5988b2" d="M 309.5,487.5 C 308.41,488.857 307.076,489.857 305.5,490.5C 278.57,497.465 251.236,499.131 223.5,495.5C 223.5,495.167 223.5,494.833 223.5,494.5C 234.167,494.5 244.833,494.5 255.5,494.5C 273.752,494.035 291.752,491.702 309.5,487.5 Z"/></g>
</svg>
